<?xml version="1.0" encoding="UTF-8" standalone="no"?>
<!-- Generated by graphviz version 2.40.1 (20161225.0304)
 -->

<!-- Pages: 1 -->

<svg
   width="586pt"
   height="256pt"
   viewBox="0.00 0.00 585.68 255.65"
   version="1.1"
   id="svg941"
   sodipodi:docname="example_graph.svg"
   inkscape:version="1.1.2 (b8e25be8, 2022-02-05)"
   xmlns:inkscape="http://www.inkscape.org/namespaces/inkscape"
   xmlns:sodipodi="http://sodipodi.sourceforge.net/DTD/sodipodi-0.dtd"
   xmlns:xlink="http://www.w3.org/1999/xlink"
   xmlns="http://www.w3.org/2000/svg"
   xmlns:svg="http://www.w3.org/2000/svg">
  <defs
     id="defs945" />
  <sodipodi:namedview
     id="namedview943"
     pagecolor="#ffffff"
     bordercolor="#666666"
     borderopacity="1.0"
     inkscape:pageshadow="2"
     inkscape:pageopacity="0.0"
     inkscape:pagecheckerboard="0"
     inkscape:document-units="pt"
     showgrid="false"
     inkscape:zoom="1.40657"
     inkscape:cx="697.79678"
     inkscape:cy="351.56445"
     inkscape:window-width="1312"
     inkscape:window-height="997"
     inkscape:window-x="0"
     inkscape:window-y="25"
     inkscape:window-maximized="0"
     inkscape:current-layer="graph0" />
  <g
     id="graph0"
     class="graph"
     transform="scale(1 1) rotate(0) translate(4 251.6515)">
    <polygon
       fill="#ffffff"
       stroke="transparent"
       points="-4,4 -4,-251.6515 581.6796,-251.6515 581.6796,4 -4,4"
       id="polygon824" />
    <g
       id="node1"
       class="node">
      <g
         id="a_node1">
          <polygon
             fill="#fffaf0"
             stroke="#000000"
             points="166.057,-41.4019 -.019,-41.4019 -.019,-.1981 166.057,-.1981 166.057,-41.4019"
             id="polygon828" />
          <text
             text-anchor="middle"
             x="83.018997"
             y="-25"
             font-family="Times, serif"
             font-size="14px"
             fill="#000000"
             id="text830">module_C</text>
          <text
             text-anchor="middle"
             x="83.019"
             y="-8.2"
             font-family="Times,serif"
             font-size="14.00"
             fill="#000000"
             id="text832">v0.1.0 (go1.17)</text>
      </g>
    </g>
    <g
       id="node2"
       class="node">
      <g
         id="a_node2">
          <polygon
             fill="#fffaf0"
             stroke="#000000"
             points="313.5235,-41.4019 184.5145,-41.4019 184.5145,-.1981 313.5235,-.1981 313.5235,-41.4019"
             id="polygon840" />
          <text
             text-anchor="middle"
             x="249.019"
             y="-25"
             font-family="Times, serif"
             font-size="14px"
             fill="#000000"
             id="text842">module_D</text>
          <text
             text-anchor="middle"
             x="249.019"
             y="-8.2"
             font-family="Times,serif"
             font-size="14.00"
             fill="#000000"
             id="text844">v0.9.1 (go1.17)</text>
      </g>
    </g>
    <g
       id="node3"
       class="node">
      <polygon
         fill="#ffc125"
         stroke="#dc143c"
         points="330.1459,-94.5545 336.8507,-94.7152 343.4862,-94.9557 350.0253,-95.2753 356.4415,-95.6731 362.709,-96.1482 368.8031,-96.6991 374.7002,-97.3243 380.3777,-98.0222 385.8146,-98.7908 390.9914,-99.628 395.89,-100.5315 400.494,-101.4989 404.789,-102.5275 408.7622,-103.6145 412.4026,-104.7568 415.7013,-105.9515 418.6512,-107.1951 421.2471,-108.4843 423.4857,-109.8155 425.3656,-111.1852 426.8871,-112.5895 428.0523,-114.0246 428.8649,-115.4866 429.3305,-116.9714 429.4558,-118.475 429.2489,-119.9933 428.7196,-121.522 427.8782,-123.0571 426.7365,-124.5943 425.307,-126.1294 423.603,-127.6582 421.6382,-129.1765 419.427,-130.6801 416.984,-132.1649 414.324,-133.6269 411.4619,-135.062 408.4126,-136.4663 405.1906,-137.8359 401.8103,-139.1672 398.2857,-140.4564 394.6302,-141.7 390.8568,-142.8946 386.9777,-144.037 383.0045,-145.1239 378.9482,-146.1525 374.8189,-147.1199 370.6259,-148.0235 366.3778,-148.8607 362.0826,-149.6293 357.7472,-150.3272 353.378,-150.9524 348.9807,-151.5033 344.5605,-151.9783 340.1218,-152.3762 335.6687,-152.6958 331.2048,-152.9362 326.7334,-153.0969 322.2576,-153.1774 317.7804,-153.1774 313.3046,-153.0969 308.8332,-152.9362 304.3693,-152.6958 299.9162,-152.3762 295.4775,-151.9783 291.0573,-151.5033 286.66,-150.9524 282.2908,-150.3272 277.9554,-149.6293 273.6602,-148.8607 269.4121,-148.0235 265.2191,-147.1199 261.0898,-146.1525 257.0335,-145.1239 253.0603,-144.037 249.1812,-142.8946 245.4078,-141.7 241.7523,-140.4564 238.2277,-139.1672 234.8474,-137.8359 231.6254,-136.4663 228.5761,-135.062 225.714,-133.6269 223.054,-132.1649 220.611,-130.6801 218.3998,-129.1765 216.435,-127.6582 214.731,-126.1294 213.3015,-124.5943 212.1598,-123.0571 211.3184,-121.522 210.7891,-119.9933 210.5822,-118.475 210.7075,-116.9714 211.1731,-115.4866 211.9857,-114.0246 213.1509,-112.5895 214.6724,-111.1852 216.5523,-109.8155 218.7909,-108.4843 221.3868,-107.1951 224.3367,-105.9515 227.6354,-104.7568 231.2758,-103.6145 235.249,-102.5275 239.544,-101.4989 244.148,-100.5315 249.0466,-99.628 254.2234,-98.7908 259.6603,-98.0222 265.3378,-97.3243 271.2349,-96.6991 277.329,-96.1482 283.5965,-95.6731 290.0127,-95.2753 296.5518,-94.9557 303.1873,-94.7152 309.8921,-94.5545 316.6387,-94.4741 323.3993,-94.4741 330.1459,-94.5545"
         id="polygon852" />
      <text
         text-anchor="middle"
         x="320.01901"
         y="-128.0257"
         font-family="Times, serif"
         font-size="14px"
         fill="#000000"
         id="text854">module_B</text>
      <text
         text-anchor="middle"
         x="320.019"
         y="-111.2257"
         font-family="Times,serif"
         font-size="14.00"
         fill="#000000"
         id="text856">v0.26.3 (go1.17)</text>
    </g>
    <g
       id="edge1"
       class="edge">
      <path
         fill="none"
         stroke="#696969"
         d="M260.2139,-97.828C221.7619,-81.1126 172.279,-59.602 135.3815,-43.5624"
         id="path861" />
      <polygon
         fill="#696969"
         stroke="#696969"
         points="135.773,-41.8244 130.4898,-41.4359 134.3776,-45.0343 135.773,-41.8244"
         id="polygon863" />
      <text
         text-anchor="middle"
         x="226.519"
         y="-63.8"
         font-family="Times,serif"
         font-size="14.00"
         fill="#696969"
         id="text865">v0.1.0</text>
    </g>
    <g
       id="edge2"
       class="edge">
      <path
         fill="none"
         stroke="#696969"
         d="M299.8632,-94.5783C289.3114,-79.267 276.5202,-60.706 266.4073,-46.0315"
         id="path870" />
      <polygon
         fill="#696969"
         stroke="#696969"
         points="267.6385,-44.734 263.3602,-41.61 264.7565,-46.7201 267.6385,-44.734"
         id="polygon872" />
      <text
         text-anchor="middle"
         x="304.519"
         y="-63.8"
         font-family="Times,serif"
         font-size="14.00"
         fill="#696969"
         id="text874">v0.9.1</text>
    </g>
    <g
       id="node5"
       class="node">
      <g
         id="a_node5">
          <polygon
             fill="#fffaf0"
             stroke="#000000"
             points="449.8831,-41.4019 332.1549,-41.4019 332.1549,-.1981 449.8831,-.1981 449.8831,-41.4019"
             id="polygon879" />
          <text
             text-anchor="middle"
             x="391.01901"
             y="-25"
             font-family="Times, serif"
             font-size="14px"
             fill="#000000"
             id="text881">module_E</text>
          <text
             text-anchor="middle"
             x="391.019"
             y="-8.2"
             font-family="Times,serif"
             font-size="14.00"
             fill="#000000"
             id="text883">v0.3.4 (go1.17)</text>
      </g>
    </g>
    <g
       id="edge3"
       class="edge">
      <path
         fill="none"
         stroke="#ff8c00"
         d="M340.1748,-94.5783C350.7266,-79.267 363.5178,-60.706 373.6307,-46.0315"
         id="path891" />
      <polygon
         fill="#ff8c00"
         stroke="#ff8c00"
         points="375.2815,-46.7201 376.6778,-41.61 372.3995,-44.734 375.2815,-46.7201"
         id="polygon893" />
      <text
         text-anchor="middle"
         x="381.519"
         y="-63.8"
         font-family="Times,serif"
         font-size="14.00"
         fill="#ff8c00"
         id="text895">v0.3.3</text>
    </g>
    <g
       id="node6"
       class="node">
      <g
         id="a_node6">
          <polygon
             fill="#fffaf0"
             stroke="#000000"
             points="577.8407,-41.4019 468.1973,-41.4019 468.1973,-.1981 577.8407,-.1981 577.8407,-41.4019"
             id="polygon900" />
          <text
             text-anchor="middle"
             x="523.01898"
             y="-25"
             font-family="Times, serif"
             font-size="14px"
             fill="#000000"
             id="text902"><tspan
               sodipodi:role="line"
               id="tspan7843"
               x="523.01898"
               y="-25">module_F</tspan></text>
          <text
             text-anchor="middle"
             x="523.019"
             y="-8.2"
             font-family="Times,serif"
             font-size="14.00"
             fill="#000000"
             id="text904">v1.11.1 (go1.17)</text>
      </g>
    </g>
    <g
       id="edge4"
       class="edge">
      <path
         fill="none"
         stroke="#ff8c00"
         d="M372.8249,-97.0259C405.4081,-80.4894 446.7652,-59.5 477.8284,-43.7349"
         id="path912" />
      <polygon
         fill="#ff8c00"
         stroke="#ff8c00"
         points="478.6679,-45.2714 482.3345,-41.448 477.0839,-42.1504 478.6679,-45.2714"
         id="polygon914" />
      <text
         text-anchor="middle"
         x="467.019"
         y="-63.8"
         font-family="Times,serif"
         font-size="14.00"
         fill="#ff8c00"
         id="text916">v1.10.0</text>
    </g>
    <g
       id="node4"
       class="node">
      <g
         id="a_node4">
          <polygon
             fill="#fffaf0"
             stroke="#000000"
             points="393.9151,-247.4534 246.1229,-247.4534 246.1229,-206.2495 393.9151,-206.2495 393.9151,-247.4534"
             id="polygon921" />
          <text
             text-anchor="middle"
             x="320.01901"
             y="-231.0515"
             font-family="Times, serif"
             font-size="14px"
             fill="#000000"
             id="text923">module_A</text>
          <text
             text-anchor="middle"
             x="320.019"
             y="-214.2515"
             font-family="Times,serif"
             font-size="14.00"
             fill="#000000"
             id="text925">v0.3.10 (go1.17)</text>
      </g>
    </g>
    <g
       id="edge5"
       class="edge">
      <path
         fill="none"
         stroke="#ff8c00"
         d="M320.019,-206.0027C320.019,-192.3735 320.019,-174.2418 320.019,-158.4778"
         id="path933" />
      <polygon
         fill="#ff8c00"
         stroke="#ff8c00"
         points="321.7691,-158.2324 320.019,-153.2324 318.2691,-158.2325 321.7691,-158.2324"
         id="polygon935" />
      <text
         text-anchor="middle"
         x="341.019"
         y="-175.4515"
         font-family="Times,serif"
         font-size="14.00"
         fill="#ff8c00"
         id="text937">v0.11.0</text>
    </g>
  </g>
</svg>
